PathFileType	4	(X/Y/Z)	C:/Users/beibeiliu/ov580/test_trc/User2\sequence.8_training_dense_left.trc
DataRate	CameraRate	NumFrames	NumMarkers	Units	OrigDataRate	OrigDataStartFrame	OrigNumFrames
120	120	16	19	mm	120	172	343
Frame#	Time	ThumbCMC			ThumbMCP			ThumbIP			ThumbTip			IndexMCP			IndexPIP			IndexTip			MiddleMCP			MiddlePIP			MiddleTip			RingMCP			RingPIP			RingTip			PinkyMCP			PinkyPIP			PinkyTip			BackHand1			BackHand2			BackHand3	
		X0	Y0	Z0	X1	Y1	Z1	X2	Y2	Z2	X3	Y3	Z3	X4	Y4	Z4	X5	Y5	Z5	X6	Y6	Z6	X7	Y7	Z7	X8	Y8	Z8	X9	Y9	Z9	X10	Y10	Z10	X11	Y11	Z11	X12	Y12	Z12	X13	Y13	Z13	X14	Y14	Z14	X15	Y15	Z15	X16	Y16	Z16	X17	Y17	Z17	X18	Y18	Z18	
171	1.425	-211.522	76.3857	86.2926	-193.353	93.6299	66.4378	-170.195	99.3826	40.2968	-151.212	98.3736	26.2118	-192.984	37.8564	9.67804	-178.209	35.0079	-13.0314	-154.282	35.968	-33.9547	-185.139	4.75003	15.7888	-165.317	1.16143	-9.18028	-131.621	0.808093	-27.4029	-173.91	-11.2141	31.7681	-155.214	-19.054	12.5004	-125.334	-16.4928	-7.37196	-161.965	-20.7935	59.2602	-140.372	-27.4919	38.5317	-120.547	-27.0591	24.0576	-201.128	-1.68017	79.7428	-221.124	7.85195	111.331	-223.567	37.5436	80.4296	
172	1.43333	-214.435	75.9639	86.2838	-198.21	98.1374	65.7231	-175.121	100.863	38.8537	-153.229	100.998	22.2477	-200.197	38.6419	13.4969	-185.769	35.6967	-14.4926	-164.124	39.5311	-34.334	-190.166	4.52068	17.6985	-170.278	1.58603	-12.3097	-135.87	1.08429	-29.9774	-178.256	-11.3821	27.0393	-157.956	-17.9913	7.01923	-131.558	-16.9711	-7.61885	-165.19	-22.6751	57.4608	-143.776	-27.518	34.8758	-121.903	-29.1974	17.2863	-207.187	2.43692	77.6207	-222.411	6.01828	108.394	-226.602	32.7934	82.4782	
173	1.44167	-218.937	72.2185	84.0114	-202.643	91.9888	62.2213	-181.12	102.455	33.9538	-161.36	95.4347	19.8279	-208.095	35.3293	11.5636	-193.301	35.4479	-20.5317	-170.997	33.6285	-36.5591	-199.39	4.33733	14.2367	-178.723	-0.064809	-17.3939	-147.083	2.71087	-35.3182	-187.454	-10.7316	28.0404	-168.371	-21.694	6.07912	-143.643	-14.3198	-15.7959	-174.061	-22.6138	50.8739	-152.818	-27.6938	29.9189	-131.277	-30.2402	13.0052	-216.253	2.39853	77.8288	-226.123	7.31872	104.837	-233.96	35.7636	76.6239	
174	1.45	-224.683	72.1858	82.6095	-210.322	90.2826	60.3974	-188.534	101.342	32.0901	-169.43	90.4817	18.7823	-216.239	38.1857	10.742	-198.928	32.9365	-19.2759	-174.277	35.336	-38.8374	-206.652	4.48544	11.933	-184.609	-0.5796	-18.8598	-157.307	0.503646	-34.5447	-192.959	-15.3925	26.158	-175.76	-17.5567	0.948197	-150.093	-15.7127	-16.6129	-179.599	-24.0095	50.2211	-161.324	-27.7926	28.9916	-138.764	-29.5465	12.1457	-220.448	-2.69806	75.6804	-233.088	4.95972	105.654	-239.86	34.5116	78.0548	
175	1.45833	-231.753	72.324	86.0899	-215.865	94.2952	60.6721	-192.346	98.8011	36.4451	-170.608	96.5364	19.0102	-214.081	33.899	10.705	-200.379	36.5363	-15.7429	-172.496	37.975	-33.9528	-206.563	4.64506	11.81	-185.695	0.349585	-13.5982	-151.096	5.32561	-31.313	-195.147	-12.7754	27.521	-175.851	-15.9105	3.3436	-151.854	-13.5633	-11.7952	-181.534	-24.8592	52.3866	-161.448	-27.9642	34.268	-139.759	-28.477	16.4737	-225.506	1.33278	80.0562	-239.135	7.36534	104.655	-244.81	34.4311	78.7264	
176	1.46667	-234.235	73.5326	82.8282	-217.983	95.3817	63.4898	-192.913	102.28	41.9011	-170.002	98.7208	27.1221	-207.771	35.373	14.2425	-184.179	34.9137	-10.1798	-159.447	39.5005	-21.3419	-198.448	7.88217	15.881	-174.711	7.87755	-6.46184	-138.339	13.5618	-20.4001	-188.592	-10.3593	33.3644	-166.641	-15.4518	14.0246	-136.834	-6.26114	-2.21815	-179.976	-18.2785	56.8048	-152.552	-25.8604	42.834	-131.166	-24.3296	29.6153	-225.726	-0.0624723	80.821	-242.711	5.7986	105.41	-246.486	34.1925	74.7942	
177	1.475	-239.064	77.0074	83.8239	-218.59	97.4939	65.7186	-192.677	104.233	48.3103	-165.597	97.7846	35.1554	-196.974	40.0799	15.4466	-171.791	39.8277	-0.152754	-140.35	47.792	-6.43577	-189.006	12.5567	24.8523	-155.871	12.6661	3.96044	-123.971	19.1667	-0.145127	-179.882	-3.93274	38.0192	-154.879	-8.55705	25.994	-122.323	1.24883	14.6386	-175.296	-16.3683	71.199	-147.291	-20.7212	57.783	-120.106	-17.8548	46.543	-222.403	0.134432	79.9511	-244.398	5.60327	109.142	-246.648	32.6564	77.2494	
178	1.48333	-237.576	77.7081	84.5214	-216.057	93.7415	69.3532	-186.221	107.37	51.0857	-160.421	104.115	44.7187	-187.341	43.5029	25.6289	-157.777	42.8313	12.0696	-124.853	54.3351	10.3991	-175.226	18.2269	28.1715	-141.682	20.5317	17.2242	-109.234	28.1261	17.8991	-170.836	-0.508476	48.3263	-139.556	-4.72624	39.9428	-111.37	8.45775	32.7789	-166.118	-14.3859	78.3591	-141.938	-13.4224	70.277	-113.99	-9.8544	62.0817	-218.049	0.843174	85.2097	-244.186	8.15823	103.813	-243.805	35.0868	75.8307	
179	1.49167	-234.98	78.1172	87.2647	-215.036	98.8971	74.1162	-180.847	106.701	59.4994	-156.531	104.807	56.1173	-172.877	44.9575	29.6751	-149.067	50.9133	20.3399	-117.216	54.0707	25.926	-166.898	20.9927	37.9879	-133.844	23.0219	30.0741	-99.1898	30.6014	35.3837	-160.847	-1.12905	59.9562	-132.903	1.26439	51.0059	-100.342	12.8151	50.1009	-159.369	-12.1547	86.1191	-132.145	-10.4515	79.923	-106.982	-7.36284	77.7024	-215.629	2.94288	88.6652	-242.366	10.8678	106.48	-238.791	35.0618	78.4218	
180	1.5	-229.811	77.2633	86.2315	-210.682	100.36	75.3648	-173.385	110.147	60.7829	-147.01	103.2	60.1162	-168.554	43.8304	37.0225	-136.228	50.4707	28.9559	-108.202	61.4202	33.7104	-155.804	22.9688	41.5471	-121.393	26.4689	37.4643	-89.7781	35.244	46.0817	-150.709	-0.30542	62.6391	-126.876	4.12051	57.7135	-93.6436	14.9148	62.0002	-155.172	-7.95965	87.8449	-129.248	-8.85907	87.0332	-103.646	-6.73395	86.0353	-211.402	6.28972	84.5324	-237.652	6.48886	101.986	-231.821	34.3294	79.4158	
181	1.50833	-226.326	74.4886	86.1306	-205.529	100.824	72.1555	-174.811	110.723	63.1089	-145.643	104.803	60.567	-161.774	45.3571	34.686	-135.757	49.6945	30.8692	-102.856	62.586	37.5137	-153.826	19.4036	45.1434	-121.759	25.4675	40.1519	-84.9036	33.8003	52.3551	-151.726	-0.887728	67.3681	-118.321	3.43502	62.0255	-92.7334	14.3004	66.3566	-155.477	-11.4896	94.189	-125.093	-7.62531	87.968	-99.1561	-7.49598	89.2223	-209.346	4.40073	85.4733	-237.497	6.86703	105.842	-226.753	31.49	75.8814	
182	1.51667	-228.745	72.47	88.0651	-207.211	98.4584	71.952	-174.052	108.967	60.2142	-148.673	105.626	58.1858	-167.104	41.3563	33.4187	-138.509	45.9163	25.131	-104.903	55.1043	30.6236	-155.849	16.7246	41.3381	-117.944	19.8636	37.2205	-90.0757	27.7282	46.3615	-149.839	0.477973	59.6542	-120.436	0.548777	57.8083	-88.8516	10.8358	62.7422	-153.01	-12.9982	88.6181	-127.425	-14.4122	89.2226	-98.5869	-8.80508	86.3971	-208.628	0.907561	87.6026	-238.083	6.02036	105.15	-229.398	31.4734	77.2002	
183	1.525	-229.478	68.7565	84.9481	-210.891	96.4362	69.0057	-180.245	106.488	54.5898	-153.074	96.8534	51.5454	-173.682	33.3676	26.1081	-143.862	40.8815	11.3399	-116.51	47.451	13.1596	-164.973	9.10343	36.382	-126.345	12.6751	24.6092	-94.1623	22.6879	31.1835	-157.612	-6.01199	53.9695	-126.311	-7.60598	47.1938	-98.8038	4.4678	45.7457	-158.125	-17.1935	82.6954	-129.434	-14.9976	75.1146	-105.968	-14.5226	69.804	-213.662	1.20001	84.8929	-237.87	0.652031	105.796	-233.776	28.4311	77.6938	
184	1.53333	-231.602	67.9373	79.5446	-215.191	93.1137	64.516	-186.113	100.61	47.3302	-162.117	96.2065	40.0324	-188.111	28.6264	18.589	-164.42	31.6405	0.0581681	-133.429	34.8161	-5.17813	-173.329	3.34908	23.6581	-146.133	6.91738	7.1535	-110.939	15.3475	6.6795	-165.376	-12.9955	41.8084	-140.432	-11.8883	29.6922	-108.191	-3.13321	23.5602	-161.551	-20.9347	70.3118	-135.783	-20.5964	59.5141	-111.001	-20.4108	55.2409	-215.912	-4.14587	80.9512	-237.525	2.12096	105.915	-236.523	25.6896	73.8596	
185	1.54167	-236.287	65.4422	79.3052	-221.915	87.959	58.082	-196.008	95.8743	34.2038	-172.308	87.0548	25.2347	-203.597	23.4587	8.97216	-184.395	23.8565	-11.3139	-155.86	28.0011	-22.8226	-192.875	0.45811	13.7954	-164.264	-2.13849	-4.84232	-131.13	6.38161	-13.3147	-180.975	-15.0307	35.1059	-159.08	-17.3415	15.2032	-128.069	-8.58952	3.20996	-172.066	-20.8913	61.2391	-142.281	-26.0941	46.4771	-122.188	-22.5548	35.2587	-220.224	-6.16433	78.5316	-236.528	0.620317	103.229	-242.049	23.5567	73.7589	
186	1.55	-243.474	63.6584	77.4283	-230.297	83.5745	52.8548	-210.438	94.1889	25.3858	-188.374	85.4244	11.4734	-222.149	17.154	9.53752	-204.393	15.9826	-21.7071	-182.774	20.0551	-35.9063	-208.468	-8.08555	14.8915	-185.237	-9.32827	-16.696	-155.504	-2.80553	-31.3941	-192.443	-20.3619	24.7779	-171.332	-25.7848	5.17054	-144.024	-17.0354	-12.9783	-174.365	-28.111	53.7673	-155.941	-29.1385	34.5423	-134.219	-25.6292	15.112	-220.611	-11.5536	82.3875	-236.205	-3.77475	106.717	-248.554	21.0831	79.0487	
